<?xml version="1.0" encoding="UTF-8"?>
<svg width="35px" height="20px" viewBox="0 0 35 20" version="1.1" xmlns="http://www.w3.org/2000/svg" xmlns:xlink="http://www.w3.org/1999/xlink">
    <title>Vector</title>
    <g id="Page-2" stroke="none" stroke-width="1" fill="none" fill-rule="evenodd">
        <g id="Google-Play-Copy-2" transform="translate(-28.000000, -21.000000)" fill="#3DDC84" fill-rule="nonzero">
            <g id="Vector" transform="translate(28.000000, 21.000000)">
                <path d="M25.5681314,14.9467695 C24.7605562,14.9467695 24.1053537,14.2822815 24.1053537,13.4632614 C24.1053537,12.6442413 24.7605562,11.9797533 25.5681314,11.9797533 C26.3757065,11.9797533 27.030909,12.6442413 27.030909,13.4632614 C27.030909,14.2822815 26.3757065,14.9467695 25.5681314,14.9467695 Z M9.46233952,14.9467695 C8.65476433,14.9467695 7.99956183,14.2822815 7.99956183,13.4632614 C7.99956183,12.6442413 8.65476433,11.9797533 9.46233952,11.9797533 C10.2699147,11.9797533 10.9251172,12.6442413 10.9251172,13.4632614 C10.9251172,14.2822815 10.2699147,14.9467695 9.46233952,14.9467695 Z M26.0861985,6.04572075 L29.0117538,0.930706803 C29.1793638,0.637095819 29.0727029,0.266218786 28.7831948,0.0962334798 C28.4936867,-0.0737512086 28.1279923,0.034420641 27.9603824,0.328031625 L25.0043525,5.50485841 C22.7492369,4.45404015 20.2198504,3.86681819 17.5228541,3.86681819 C14.8258577,3.86681819 12.281234,4.45404015 10.0261184,5.4894052 L7.07008851,0.312578415 C6.90247856,0.0189674314 6.53678414,-0.0892045728 6.24727606,0.0807802701 C5.95776797,0.250765577 5.8511071,0.621642609 6.01871704,0.915253593 L8.92903515,6.03026754 C3.93121138,8.79639208 0.502829221,13.9268577 0,20 L35,20 C34.5124074,13.9423109 31.0992595,8.81184528 26.0861985,6.04572075" id="Shape"></path>
            </g>
        </g>
    </g>
</svg>